<svg xmlns="http://www.w3.org/2000/svg" x="0px" y="0px"
width="96" height="96"
viewBox="0 0 172 172"
style=" fill:#000000;"><defs><linearGradient x1="83.3125" y1="77.04256" x2="83.3125" y2="117.02988" gradientUnits="userSpaceOnUse" id="color-1_44030_gr1"><stop offset="0" stop-color="#fd9999"></stop><stop offset="1" stop-color="#eeb783"></stop></linearGradient><linearGradient x1="86" y1="26.20313" x2="86" y2="146.6945" gradientUnits="userSpaceOnUse" id="color-2_44030_gr2"><stop offset="0" stop-color="#fb2b2b"></stop><stop offset="1" stop-color="#e07d21"></stop></linearGradient><linearGradient x1="61.8125" y1="26.20313" x2="61.8125" y2="146.6945" gradientUnits="userSpaceOnUse" id="color-3_44030_gr3"><stop offset="0" stop-color="#fb2b2b"></stop><stop offset="1" stop-color="#e07d21"></stop></linearGradient><linearGradient x1="61.8125" y1="26.20313" x2="61.8125" y2="146.6945" gradientUnits="userSpaceOnUse" id="color-4_44030_gr4"><stop offset="0" stop-color="#fb2b2b"></stop><stop offset="1" stop-color="#e07d21"></stop></linearGradient><linearGradient x1="47.03125" y1="26.20313" x2="47.03125" y2="146.6945" gradientUnits="userSpaceOnUse" id="color-5_44030_gr5"><stop offset="0" stop-color="#fb2b2b"></stop><stop offset="1" stop-color="#e07d21"></stop></linearGradient><linearGradient x1="47.03125" y1="26.20313" x2="47.03125" y2="146.6945" gradientUnits="userSpaceOnUse" id="color-6_44030_gr6"><stop offset="0" stop-color="#fb2b2b"></stop><stop offset="1" stop-color="#e07d21"></stop></linearGradient><linearGradient x1="47.03125" y1="26.20313" x2="47.03125" y2="146.6945" gradientUnits="userSpaceOnUse" id="color-7_44030_gr7"><stop offset="0" stop-color="#fb2b2b"></stop><stop offset="1" stop-color="#e07d21"></stop></linearGradient><linearGradient x1="47.03125" y1="26.20313" x2="47.03125" y2="146.6945" gradientUnits="userSpaceOnUse" id="color-8_44030_gr8"><stop offset="0" stop-color="#fb2b2b"></stop><stop offset="1" stop-color="#e07d21"></stop></linearGradient></defs><g fill="none" fill-rule="nonzero" stroke="none" stroke-width="1" stroke-linecap="butt" stroke-linejoin="miter" stroke-miterlimit="10" stroke-dasharray="" stroke-dashoffset="0" font-family="none" font-weight="none" font-size="none" text-anchor="none" style="mix-blend-mode: normal"><path d="M0,172v-172h172v172z" fill="none"></path><g><path d="M91.375,115.5625h-16.125c-1.4835,0 -2.6875,-1.204 -2.6875,-2.6875v-32.25c0,-1.4835 1.204,-2.6875 2.6875,-2.6875h16.125c1.4835,0 2.6875,1.204 2.6875,2.6875v32.25c0,1.4835 -1.204,2.6875 -2.6875,2.6875z" fill="url(#color-1_44030_gr1)"></path><path d="M143.75169,51.12431c-0.44075,-0.04031 -0.87613,0.01344 -1.31419,0.01344v-0.07525h-29.5625v-16.125c0,-4.44513 -3.61738,-8.0625 -8.0625,-8.0625h-80.625c-4.44513,0 -8.0625,3.61737 -8.0625,8.0625v96.75c0,7.40944 6.02806,13.4375 13.4375,13.4375h91.375v0c0.01075,0 0.01881,0 0.02956,0c0.42463,0 0.85194,-0.0215 1.28194,-0.06181c6.79937,-0.64769 12.126,-6.72681 12.126,-13.83794v-7.60025h16.125c2.96431,0 5.375,-2.41069 5.375,-5.375v-53.28775c0,-7.10844 -5.32394,-13.18756 -12.12331,-13.83794zM112.875,83.3125h5.375v26.875h-5.375zM21.5,131.6875v-96.75c0,-1.48081 1.204,-2.6875 2.6875,-2.6875h80.625c1.4835,0 2.6875,1.20669 2.6875,2.6875v96.75c0,2.92938 0.98631,5.75125 2.72244,8.0625h-80.65994c-4.44513,0 -8.0625,-3.61737 -8.0625,-8.0625zM129,64.49194v66.736c0,4.36988 -3.19275,8.09744 -7.26162,8.48713c-2.3005,0.22844 -4.52306,-0.50794 -6.22156,-2.05863c-1.67969,-1.5265 -2.64181,-3.70337 -2.64181,-5.96894v-16.125h5.375c2.96431,0 5.375,-2.41069 5.375,-5.375v-26.875c0,-2.96431 -2.41069,-5.375 -5.375,-5.375h-5.375v-5.375h10.75v-5.375h-10.75v-10.75h18.84475c-1.73344,2.31125 -2.71975,5.12775 -2.71975,8.05444zM150.5,118.25h-16.125v-13.4375h5.375v-5.375h-5.375v-5.375h5.375v-5.375h-5.375v-5.375h5.375v-5.375h-5.375v-5.375h5.375v-5.375h-5.375v-2.69556c0,-2.26288 0.95944,-4.43169 2.63644,-5.95819c1.70388,-1.548 3.8915,-2.279 6.22962,-2.05594c4.06888,0.38969 7.25625,4.11456 7.25625,8.48444v53.28775z" fill="url(#color-2_44030_gr2)"></path><path d="M29.5625,56.4375h64.5v5.375h-64.5z" fill="url(#color-3_44030_gr3)"></path><path d="M29.5625,67.1875h64.5v5.375h-64.5z" fill="url(#color-4_44030_gr4)"></path><path d="M29.5625,77.9375h34.9375v5.375h-34.9375z" fill="url(#color-5_44030_gr5)"></path><path d="M29.5625,88.6875h34.9375v5.375h-34.9375z" fill="url(#color-6_44030_gr6)"></path><path d="M29.5625,99.4375h34.9375v5.375h-34.9375z" fill="url(#color-7_44030_gr7)"></path><path d="M29.5625,110.1875h34.9375v5.375h-34.9375z" fill="url(#color-8_44030_gr8)"></path></g></g></svg>