<svg xmlns="http://www.w3.org/2000/svg" x="0px" y="0px"
width="64" height="64"
viewBox="0 0 172 172"
style=" fill:#000000;"><defs><linearGradient x1="45.6875" y1="124.29688" x2="45.6875" y2="147.82325" gradientUnits="userSpaceOnUse" id="color-1_43995_gr1"><stop offset="0" stop-color="#eeb783"></stop><stop offset="1" stop-color="#fd9999"></stop></linearGradient><linearGradient x1="86" y1="14.33244" x2="86" y2="156.79681" gradientUnits="userSpaceOnUse" id="color-2_43995_gr2"><stop offset="0" stop-color="#e07d21"></stop><stop offset="1" stop-color="#fb2b2b"></stop></linearGradient><linearGradient x1="75.25" y1="14.33244" x2="75.25" y2="156.79681" gradientUnits="userSpaceOnUse" id="color-3_43995_gr3"><stop offset="0" stop-color="#e07d21"></stop><stop offset="1" stop-color="#fb2b2b"></stop></linearGradient><linearGradient x1="75.25" y1="14.33244" x2="75.25" y2="156.79681" gradientUnits="userSpaceOnUse" id="color-4_43995_gr4"><stop offset="0" stop-color="#e07d21"></stop><stop offset="1" stop-color="#fb2b2b"></stop></linearGradient><linearGradient x1="86" y1="14.33244" x2="86" y2="156.79681" gradientUnits="userSpaceOnUse" id="color-5_43995_gr5"><stop offset="0" stop-color="#e07d21"></stop><stop offset="1" stop-color="#fb2b2b"></stop></linearGradient><linearGradient x1="86" y1="14.33244" x2="86" y2="156.79681" gradientUnits="userSpaceOnUse" id="color-6_43995_gr6"><stop offset="0" stop-color="#e07d21"></stop><stop offset="1" stop-color="#fb2b2b"></stop></linearGradient></defs><g fill="none" fill-rule="nonzero" stroke="none" stroke-width="1" stroke-linecap="butt" stroke-linejoin="miter" stroke-miterlimit="10" stroke-dasharray="" stroke-dashoffset="0" font-family="none" font-weight="none" font-size="none" text-anchor="none" style="mix-blend-mode: normal"><path d="M0,172v-172h172v172z" fill="none"></path><g><path d="M34.9375,123.625v16.125c0,2.96969 2.40531,5.375 5.375,5.375h16.125z" fill="url(#color-1_43995_gr1)"></path><path d="M139.75,99.4375v-67.1875c0,-3.49912 -2.25481,-6.45538 -5.375,-7.568v-0.4945c0,-4.44513 -3.61738,-8.0625 -8.0625,-8.0625h-80.625c-4.44512,0 -8.0625,3.61737 -8.0625,8.0625v0.4945c-3.12019,1.11262 -5.375,4.06887 -5.375,7.568v32.25c-4.44513,0 -8.0625,3.61737 -8.0625,8.0625v69.875c0,7.40944 6.02806,13.4375 13.4375,13.4375h99.4375v0c0.19081,0 0.38163,-0.00538 0.57512,-0.01344c5.70556,-0.29831 10.17488,-5.21644 10.17488,-11.19344v-37.16813c0,-4.44513 -3.61737,-8.0625 -8.0625,-8.0625zM118.25,29.5625h13.4375c1.4835,0 2.6875,1.204 2.6875,2.6875v16.125h-13.4375c-1.4835,0 -2.6875,-1.204 -2.6875,-2.6875zM45.6875,21.5h80.625c1.4835,0 2.6875,1.204 2.6875,2.6875h-86c0,-1.4835 1.204,-2.6875 2.6875,-2.6875zM29.5625,142.4375v-69.875c0,-1.4835 1.204,-2.6875 2.6875,-2.6875h21.31188c0.90031,0 1.73613,0.44612 2.236,1.19594l7.55725,11.3305c1.49694,2.25481 4.00706,3.59856 6.71606,3.59856h53.55381c1.4835,0 2.6875,1.204 2.6875,2.6875v56.4375c0,1.90544 0.56169,3.74638 1.505,5.375h-90.1925c-4.44512,0 -8.0625,-3.61737 -8.0625,-8.0625zM142.4375,144.66813c0,3.06644 -2.28169,5.676 -5.08206,5.82381c-1.4835,0.06719 -2.91325,-0.44344 -3.99362,-1.47006c-1.07769,-1.02662 -1.67431,-2.408 -1.67431,-3.89687v-56.4375c0,-4.44513 -3.61738,-8.0625 -8.0625,-8.0625h-53.55381c-0.90569,0 -1.74419,-0.44881 -2.24675,-1.20131l-7.55725,-11.33319c-1.49694,-2.24944 -4.00438,-3.5905 -6.70531,-3.5905h-15.93687v-32.25c0,-1.4835 1.204,-2.6875 2.6875,-2.6875h72.5625v16.125c0,4.44512 3.61738,8.0625 8.0625,8.0625h13.4375v91.375c0,1.48619 1.20131,2.6875 2.6875,2.6875c1.48619,0 2.6875,-1.20131 2.6875,-2.6875v-40.3125c1.4835,0 2.6875,1.204 2.6875,2.6875z" fill="url(#color-2_43995_gr2)"></path><path d="M48.375,37.625h53.75v5.375h-53.75z" fill="url(#color-3_43995_gr3)"></path><path d="M48.375,48.375h53.75v5.375h-53.75z" fill="url(#color-4_43995_gr4)"></path><path d="M69.875,59.125h32.25v5.375h-32.25z" fill="url(#color-5_43995_gr5)"></path><path d="M69.875,69.875h32.25v5.375h-32.25z" fill="url(#color-6_43995_gr6)"></path></g></g></svg>