<svg xmlns="http://www.w3.org/2000/svg" x="0px" y="0px"
width="96" height="96"
viewBox="0 0 172 172"
style=" fill:#000000;"><defs><linearGradient x1="72.5625" y1="58.45313" x2="72.5625" y2="76.20138" gradientUnits="userSpaceOnUse" id="color-1_44781_gr1"><stop offset="0" stop-color="#eeb783"></stop><stop offset="1" stop-color="#fd9999"></stop></linearGradient><linearGradient x1="86" y1="14.44531" x2="86" y2="157.28325" gradientUnits="userSpaceOnUse" id="color-2_44781_gr2"><stop offset="0" stop-color="#e07d21"></stop><stop offset="1" stop-color="#fb2b2b"></stop></linearGradient><linearGradient x1="72.5625" y1="14.44531" x2="72.5625" y2="157.28325" gradientUnits="userSpaceOnUse" id="color-3_44781_gr3"><stop offset="0" stop-color="#e07d21"></stop><stop offset="1" stop-color="#fb2b2b"></stop></linearGradient><linearGradient x1="80.625" y1="14.44531" x2="80.625" y2="157.28325" gradientUnits="userSpaceOnUse" id="color-4_44781_gr4"><stop offset="0" stop-color="#e07d21"></stop><stop offset="1" stop-color="#fb2b2b"></stop></linearGradient></defs><g fill="none" fill-rule="nonzero" stroke="none" stroke-width="1" stroke-linecap="butt" stroke-linejoin="miter" stroke-miterlimit="10" stroke-dasharray="" stroke-dashoffset="0" font-family="none" font-weight="none" font-size="none" text-anchor="none" style="mix-blend-mode: normal"><path d="M0,172v-172h172v172z" fill="none"></path><g><path d="M86,75.25h-26.875c-1.4835,0 -2.6875,-1.204 -2.6875,-2.6875v-10.75c0,-1.4835 1.204,-2.6875 2.6875,-2.6875h26.875c1.4835,0 2.6875,1.204 2.6875,2.6875v10.75c0,1.4835 -1.204,2.6875 -2.6875,2.6875z" fill="url(#color-1_44781_gr1)"></path><path d="M131.6875,16.125h-37.48525c-0.05106,0 -0.09675,0 -0.14512,0c-2.76813,0 -5.37769,1.03738 -7.396,2.95356c-2.1285,2.021 -3.34862,4.86169 -3.34862,7.79644h-40.3125c-7.40944,0 -13.4375,6.02806 -13.4375,13.4375v102.125c0,7.40944 6.02806,13.4375 13.4375,13.4375h75.25c7.40944,0 13.4375,-6.02806 13.4375,-13.4375v-67.19287c1.66088,0.58856 3.50719,0.63425 5.30244,0.01613c3.30831,-1.13681 5.44756,-4.13069 5.44756,-7.62981v-40.75594c0,-5.92862 -4.82137,-10.75 -10.75,-10.75zM104.88506,75.26075c0.88687,0.30369 1.78719,0.4515 2.67137,0.4515c2.42413,0 4.74075,-1.10456 6.31294,-3.12556l1.69312,-2.17687v42.46519h-69.875v-69.875h53.75v24.63094c0,3.49912 2.13925,6.493 5.44756,7.62981zM90.36181,22.97544c1.0105,-0.95944 2.31394,-1.47544 3.70069,-1.47544h0.09137c0.06719,0 0.13437,0.00269 0.19887,0.00806c2.66063,0.13975 4.82675,2.50744 5.04175,5.36694h-10.707c0,-1.48888 0.59663,-2.87294 1.67431,-3.89956zM126.3125,142.4375c0,4.44512 -3.61738,8.0625 -8.0625,8.0625h-75.25c-4.44512,0 -8.0625,-3.61738 -8.0625,-8.0625c0,-4.44512 3.61738,-8.0625 8.0625,-8.0625h75.25c3.02344,0 5.81575,-1.00244 8.0625,-2.69288zM118.25,129h-75.25c-3.03687,0 -5.81037,1.05081 -8.0625,2.75469v-91.44219c0,-4.44512 3.61738,-8.0625 8.0625,-8.0625h56.4375v5.375h-53.75c-2.96431,0 -5.375,2.41069 -5.375,5.375v69.875c0,2.96431 2.41069,5.375 5.375,5.375h69.875c2.96431,0 5.375,-2.41069 5.375,-5.375v-47.63325c0.80356,0 1.60981,0.33056 2.12313,0.99169l3.25187,4.17638v50.52769c0,4.44513 -3.61737,8.0625 -8.0625,8.0625zM137.0625,67.63094c0,1.7845 -1.39212,2.39994 -1.81944,2.54506c-0.42731,0.15319 -1.90006,0.516 -2.99656,-0.89225l-4.94231,-6.35056c-1.53994,-1.98069 -3.86194,-3.11481 -6.36669,-3.11481c-2.50475,0 -4.82675,1.13413 -6.364,3.11213l-4.945,6.35325c-1.09381,1.40287 -2.56925,1.04006 -2.99656,0.89225c-0.42731,-0.14781 -1.81944,-0.76056 -1.81944,-2.54506v-40.29906c0,-2.13388 -0.56975,-4.13069 -1.56144,-5.83187h28.43644c2.96431,0 5.375,2.41069 5.375,5.375z" fill="url(#color-2_44781_gr2)"></path><path d="M56.4375,80.625h32.25v5.375h-32.25z" fill="url(#color-3_44781_gr3)"></path><path d="M56.4375,91.375h48.375v5.375h-48.375z" fill="url(#color-4_44781_gr4)"></path></g></g></svg>