<svg xmlns="http://www.w3.org/2000/svg" x="0px" y="0px"
width="64" height="64"
viewBox="0 0 172 172"
style=" fill:#000000;"><defs><linearGradient x1="77.9375" y1="84.65625" x2="77.9375" y2="103.46875" gradientUnits="userSpaceOnUse" id="color-1_48159_gr1"><stop offset="0" stop-color="#fd9999"></stop><stop offset="1" stop-color="#eeb783"></stop></linearGradient><linearGradient x1="77.9375" y1="19.26131" x2="77.9375" y2="156.348" gradientUnits="userSpaceOnUse" id="color-2_48159_gr2"><stop offset="0" stop-color="#fb2b2b"></stop><stop offset="1" stop-color="#e07d21"></stop></linearGradient><linearGradient x1="123.625" y1="19.26131" x2="123.625" y2="156.348" gradientUnits="userSpaceOnUse" id="color-3_48159_gr3"><stop offset="0" stop-color="#fb2b2b"></stop><stop offset="1" stop-color="#e07d21"></stop></linearGradient><linearGradient x1="88.6875" y1="19.26131" x2="88.6875" y2="156.348" gradientUnits="userSpaceOnUse" id="color-4_48159_gr4"><stop offset="0" stop-color="#fb2b2b"></stop><stop offset="1" stop-color="#e07d21"></stop></linearGradient></defs><g fill="none" fill-rule="nonzero" stroke="none" stroke-width="1" stroke-linecap="butt" stroke-linejoin="miter" stroke-miterlimit="10" stroke-dasharray="" stroke-dashoffset="0" font-family="none" font-weight="none" font-size="none" text-anchor="none" style="mix-blend-mode: normal"><path d="M0,172v-172h172v172z" fill="none"></path><g><path d="M86,99.4375c0,1.4835 -1.204,2.6875 -2.6875,2.6875h-10.75c-1.4835,0 -2.6875,-1.204 -2.6875,-2.6875v-10.75c0,-1.4835 1.204,-2.6875 2.6875,-2.6875h10.75c1.4835,0 2.6875,1.204 2.6875,2.6875z" fill="url(#color-1_48159_gr1)"></path><path d="M129,91.375h-10.75c-2.96431,0 -5.375,2.41069 -5.375,5.375v32.25h-69.875v-69.875h32.25c2.96431,0 5.375,-2.41069 5.375,-5.375v-10.75c0,-2.96431 -2.41069,-5.375 -5.375,-5.375h-40.3125c-7.40944,0 -13.4375,6.02806 -13.4375,13.4375v86c0,7.40944 6.02806,13.4375 13.4375,13.4375h86c7.40944,0 13.4375,-6.02806 13.4375,-13.4375v-40.3125c0,-2.96431 -2.41069,-5.375 -5.375,-5.375zM129,137.0625c0,4.44512 -3.61738,8.0625 -8.0625,8.0625h-86c-4.44513,0 -8.0625,-3.61738 -8.0625,-8.0625v-86c0,-4.44512 3.61737,-8.0625 8.0625,-8.0625h40.3125v10.75h-32.25c-2.96431,0 -5.375,2.41069 -5.375,5.375v69.875c0,2.96431 2.41069,5.375 5.375,5.375h69.875c2.96431,0 5.375,-2.41069 5.375,-5.375v-32.25h10.75z" fill="url(#color-2_48159_gr2)"></path><path d="M137.0625,21.5h-34.9375c-2.96431,0 -5.375,2.41069 -5.375,5.375v10.75c0,2.96431 2.41069,5.375 5.375,5.375h26.875v26.875c0,2.96431 2.41069,5.375 5.375,5.375h10.75c2.96431,0 5.375,-2.41069 5.375,-5.375v-34.9375c0,-7.40944 -6.02806,-13.4375 -13.4375,-13.4375zM145.125,69.875h-10.75v-26.875c0,-2.96431 -2.41069,-5.375 -5.375,-5.375h-26.875v-10.75h34.9375c4.44512,0 8.0625,3.61737 8.0625,8.0625z" fill="url(#color-3_48159_gr3)"></path><path d="M91.375,75.25h-26.875c-2.96431,0 -5.375,2.41069 -5.375,5.375v26.875c0,2.96431 2.41069,5.375 5.375,5.375h26.875c2.96431,0 5.375,-2.41069 5.375,-5.375v-26.875c0,-0.47837 -0.08331,-0.93256 -0.20156,-1.37331l16.32656,-16.32656v17.69987h5.375v-21.5c0,-2.96431 -2.41069,-5.375 -5.375,-5.375h-21.5v5.375h17.69987l-16.32656,16.32388c-0.44075,-0.11556 -0.89494,-0.19888 -1.37331,-0.19888zM91.375,107.5h-26.875v-26.875h26.875z" fill="url(#color-4_48159_gr4)"></path></g></g></svg>