<svg xmlns="http://www.w3.org/2000/svg" x="0px" y="0px"
width="64" height="64"
viewBox="0 0 172 172"
style=" fill:#000000;"><defs><linearGradient x1="110.1875" y1="68.53125" x2="110.1875" y2="98.28456" gradientUnits="userSpaceOnUse" id="color-1_44004_gr1"><stop offset="0" stop-color="#eeb783"></stop><stop offset="1" stop-color="#fd9999"></stop></linearGradient><linearGradient x1="86" y1="15.45313" x2="86" y2="155.52025" gradientUnits="userSpaceOnUse" id="color-2_44004_gr2"><stop offset="0" stop-color="#e07d21"></stop><stop offset="1" stop-color="#fb2b2b"></stop></linearGradient><linearGradient x1="86" y1="15.45313" x2="86" y2="155.52025" gradientUnits="userSpaceOnUse" id="color-3_44004_gr3"><stop offset="0" stop-color="#e07d21"></stop><stop offset="1" stop-color="#fb2b2b"></stop></linearGradient><linearGradient x1="69.875" y1="15.45313" x2="69.875" y2="155.52025" gradientUnits="userSpaceOnUse" id="color-4_44004_gr4"><stop offset="0" stop-color="#e07d21"></stop><stop offset="1" stop-color="#fb2b2b"></stop></linearGradient><linearGradient x1="69.875" y1="15.45313" x2="69.875" y2="155.52025" gradientUnits="userSpaceOnUse" id="color-5_44004_gr5"><stop offset="0" stop-color="#e07d21"></stop><stop offset="1" stop-color="#fb2b2b"></stop></linearGradient><linearGradient x1="69.875" y1="15.45313" x2="69.875" y2="155.52025" gradientUnits="userSpaceOnUse" id="color-6_44004_gr6"><stop offset="0" stop-color="#e07d21"></stop><stop offset="1" stop-color="#fb2b2b"></stop></linearGradient><linearGradient x1="110.1875" y1="15.45313" x2="110.1875" y2="155.52025" gradientUnits="userSpaceOnUse" id="color-7_44004_gr7"><stop offset="0" stop-color="#e07d21"></stop><stop offset="1" stop-color="#fb2b2b"></stop></linearGradient><linearGradient x1="53.75" y1="15.45313" x2="53.75" y2="155.52025" gradientUnits="userSpaceOnUse" id="color-8_44004_gr8"><stop offset="0" stop-color="#e07d21"></stop><stop offset="1" stop-color="#fb2b2b"></stop></linearGradient><linearGradient x1="64.5" y1="15.45313" x2="64.5" y2="155.52025" gradientUnits="userSpaceOnUse" id="color-9_44004_gr9"><stop offset="0" stop-color="#e07d21"></stop><stop offset="1" stop-color="#fb2b2b"></stop></linearGradient><linearGradient x1="75.25" y1="15.45313" x2="75.25" y2="155.52025" gradientUnits="userSpaceOnUse" id="color-10_44004_gr10"><stop offset="0" stop-color="#e07d21"></stop><stop offset="1" stop-color="#fb2b2b"></stop></linearGradient><linearGradient x1="86" y1="15.45313" x2="86" y2="155.52025" gradientUnits="userSpaceOnUse" id="color-11_44004_gr11"><stop offset="0" stop-color="#e07d21"></stop><stop offset="1" stop-color="#fb2b2b"></stop></linearGradient><linearGradient x1="115.5625" y1="15.45313" x2="115.5625" y2="155.52025" gradientUnits="userSpaceOnUse" id="color-12_44004_gr12"><stop offset="0" stop-color="#e07d21"></stop><stop offset="1" stop-color="#fb2b2b"></stop></linearGradient><linearGradient x1="69.875" y1="15.45313" x2="69.875" y2="155.52025" gradientUnits="userSpaceOnUse" id="color-13_44004_gr13"><stop offset="0" stop-color="#e07d21"></stop><stop offset="1" stop-color="#fb2b2b"></stop></linearGradient></defs><g fill="none" fill-rule="nonzero" stroke="none" stroke-width="1" stroke-linecap="butt" stroke-linejoin="miter" stroke-miterlimit="10" stroke-dasharray="" stroke-dashoffset="0" font-family="none" font-weight="none" font-size="none" text-anchor="none" style="mix-blend-mode: normal"><path d="M0,172v-172h172v172z" fill="none"></path><g><path d="M102.125,96.75h16.125c1.4835,0 2.6875,-1.204 2.6875,-2.6875v-21.5c0,-1.4835 -1.204,-2.6875 -2.6875,-2.6875h-16.125c-1.4835,0 -2.6875,1.204 -2.6875,2.6875v21.5c0,1.4835 1.204,2.6875 2.6875,2.6875z" fill="url(#color-1_44004_gr1)"></path><path d="M131.6875,26.875h-5.375c0,-2.96431 -2.41069,-5.375 -5.375,-5.375h-21.5c0,-2.96431 -2.41069,-5.375 -5.375,-5.375h-16.125c-2.96431,0 -5.375,2.41069 -5.375,5.375h-21.5c-2.96431,0 -5.375,2.41069 -5.375,5.375h-5.375c-2.96431,0 -5.375,2.41069 -5.375,5.375v118.25c0,2.96431 2.41069,5.375 5.375,5.375h91.375c2.96431,0 5.375,-2.41069 5.375,-5.375v-118.25c0,-2.96431 -2.41069,-5.375 -5.375,-5.375zM77.9375,21.5h16.125v13.4375c0,4.44512 -3.61738,8.0625 -8.0625,8.0625c-4.44512,0 -8.0625,-3.61738 -8.0625,-8.0625zM40.3125,32.25h32.25v2.6875c0,7.40944 6.02806,13.4375 13.4375,13.4375c7.40944,0 13.4375,-6.02806 13.4375,-13.4375v-2.6875h32.25v86h-26.875c-2.96431,0 -5.375,2.41069 -5.375,5.375v26.875h-59.125zM104.8125,150.5v-26.875h26.875v26.875z" fill="url(#color-2_44004_gr2)"></path><path d="M51.0625,59.125h69.875v5.375h-69.875z" fill="url(#color-3_44004_gr3)"></path><path d="M51.0625,69.875h37.625v5.375h-37.625z" fill="url(#color-4_44004_gr4)"></path><path d="M51.0625,80.625h37.625v5.375h-37.625z" fill="url(#color-5_44004_gr5)"></path><path d="M51.0625,91.375h37.625v5.375h-37.625z" fill="url(#color-6_44004_gr6)"></path><path d="M99.4375,102.125h21.5v5.375h-21.5z" fill="url(#color-7_44004_gr7)"></path><path d="M51.0625,129h5.375v10.75h-5.375z" fill="url(#color-8_44004_gr8)"></path><path d="M61.8125,129h5.375v10.75h-5.375z" fill="url(#color-9_44004_gr9)"></path><path d="M72.5625,129h5.375v10.75h-5.375z" fill="url(#color-10_44004_gr10)"></path><path d="M83.3125,129h5.375v10.75h-5.375z" fill="url(#color-11_44004_gr11)"></path><path d="M110.1875,134.375v5.375h5.375v-5.375h5.375v-5.375h-5.375c-2.96431,0 -5.375,2.41069 -5.375,5.375z" fill="url(#color-12_44004_gr12)"></path><path d="M51.0625,102.125h37.625v5.375h-37.625z" fill="url(#color-13_44004_gr13)"></path></g></g></svg>